:SAMPLES-PER-SECOND 24
:FULLY-SPECIFIED
:DEGREES
47
root  0.175403 39.8696 40.3493 -49.6528 15.2437 -35.563
RightUpLeg  -86.2925 -24.7748 -7.77455
RightLeg  26.2603 -10.8068 -5.96973
RightFoot  -12.8342 -0.00242834 6.54858
RightToes  -2.08645e-008 3.77894e-005 6.81332e-007
Spine  29.2378 -1.89696 0.786979
Spine1  17.2489 -7.00584 16.0869
HEad  -8.77324 3.76838 18.6269
LeftShoulder1  7.60092 -13.4691 -38.6473
LeftArm  6.91072 -15.4004 -30.5413
LeftForeArm  154.365 -74.7134 -142.26
LeftHand  -0.419676 -3.46381 5.75678
RightShoulder  4.63383 7.22469 37.2394
RightArm  -26.2922 -28.3787 20.9734
RightForeArm  30.3361 -6.22409 2.61102
RightHand  0.174482 9.55693 0.947749
LeftUpLeg  11.869 -22.4687 24.1912
LeftLeg  45.1765 -4.51898 -4.44343
LeftFoot  1.73215 -0.217686 1.80678
LeftToes  1.24767e-006 1.47042e-008 1.32732e-009
48
root  0.295569 39.7646 40.5105 -49.8613 15.7218 -36.2197
RightUpLeg  -84.0784 -25.2032 -13.1806
RightLeg  27.0041 -11.2351 -6.37614
RightFoot  -10.8392 -0.102647 6.60454
RightToes  -2.08645e-008 3.77894e-005 6.81332e-007
Spine  29.7288 -2.04687 1.55352
Spine1  16.7173 -7.45271 17.8884
HEad  -10.5973 3.47538 20.1195
LeftShoulder1  7.65516 -13.5557 -38.7335
LeftArm  8.07641 -11.9006 -32.92
LeftForeArm  150.463 -75.8528 -138.371
LeftHand  -0.424853 -3.79149 5.6371
RightShoulder  4.56856 7.14303 36.9665
RightArm  -25.8384 -25.2847 20.6816
RightForeArm  29.736 -6.30726 3.05855
RightHand  0.164781 9.42602 0.886001
LeftUpLeg  11.7022 -22.5349 24.652
LeftLeg  45.5001 -4.69486 -4.68678
LeftFoot  0.404933 -0.256885 2.47283
LeftToes  1.24767e-006 1.47042e-008 1.32732e-009
49
root  0.54433 39.681 40.5045 -48.5271 16.3253 -36.312
RightUpLeg  -78.5239 -23.9539 -18.0393
RightLeg  25.3895 -14.3883 -7.50743
RightFoot  -8.44411 -0.174025 4.62054
RightToes  -2.08645e-008 3.77894e-005 6.81332e-007
Spine  28.4865 -2.4441 2.31534
Spine1  16.6084 -7.75815 19.5203
HEad  -13.3073 3.47338 20.7612
LeftShoulder1  7.8151 -13.7313 -39.1822
LeftArm  9.04235 -8.36771 -34.5038
LeftForeArm  146.105 -76.9072 -133.946
LeftHand  -0.445483 -3.97368 5.79433
RightShoulder  4.5143 7.0958 36.6537
RightArm  -25.3334 -20.6246 20.2705
RightForeArm  27.4823 -6.32898 3.51856
RightHand  0.103667 9.21542 0.424169
LeftUpLeg  10.7209 -22.0322 24.5129
LeftLeg  45.1245 -4.69353 -4.62368
LeftFoot  -1.24276 -0.305992 3.55073
LeftToes  1.24767e-006 1.47042e-008 1.32732e-009
50
root  0.876795 39.6481 40.4176 -46.4863 17.4468 -35.5925
RightUpLeg  -69.1347 -20.0638 -23.9391
RightLeg  20.2654 -19.4167 -7.9132
RightFoot  -7.25015 -0.153039 2.88703
RightToes  -2.08645e-008 3.77894e-005 6.81332e-007
Spine  26.2207 -2.78633 2.0292
Spine1  17.1673 -8.19477 21.2309
HEad  -16.4031 3.56498 20.5484
LeftShoulder1  7.88196 -13.8247 -39.3168
LeftArm  9.93791 -4.67742 -35.6617
LeftForeArm  142.774 -77.5302 -130.721
LeftHand  -0.454588 -3.86117 5.97231
RightShoulder  4.40001 7.01224 35.9241
RightArm  -24.5122 -15.1518 20.3256
RightForeArm  24.593 -3.90421 4.46315
RightHand  -0.0197921 9.16849 -0.555254
LeftUpLeg  10.2567 -21.4484 22.8509
LeftLeg  43.389 -3.99958 -3.6501
LeftFoot  -3.23738 -0.313125 4.69711
LeftToes  1.24767e-006 1.47042e-008 1.32732e-009
51
root  1.19209 39.6369 40.3368 -44.4874 18.587 -34.143
RightUpLeg  -59.5513 -13.6858 -28.0052
RightLeg  17.1331 -20.628 -7.13903
RightFoot  -6.5261 -0.206312 3.84968
RightToes  -2.08645e-008 3.77894e-005 6.81332e-007
Spine  23.9811 -2.8049 1.12801
Spine1  17.6214 -8.50399 22.3647
HEad  -18.333 3.40592 20.4175
LeftShoulder1  7.82379 -13.8069 -39.0408
LeftArm  11.3502 -0.603381 -36.2299
LeftForeArm  139.099 -78.0827 -127.302
LeftHand  -0.446455 -3.66998 5.9812
RightShoulder  4.39417 7.0111 35.874
RightArm  -23.1579 -10.738 19.9062
RightForeArm  22.6094 2.33845 6.10129
RightHand  -0.169452 9.31415 -1.72981
LeftUpLeg  10.7307 -20.8632 20.1806
LeftLeg  40.8822 -2.67808 -2.10378
LeftFoot  -5.04969 -0.275269 5.5609
LeftToes  1.24767e-006 1.47042e-008 1.32732e-009
52
root  1.44079 39.606 40.258 -42.1978 20.1215 -32.6024
RightUpLeg  -50.9197 -8.87047 -26.8717
RightLeg  15.7403 -18.6772 -6.10464
RightFoot  -5.35043 -0.338326 5.76356
RightToes  -2.08645e-008 3.77894e-005 6.81332e-007
Spine  21.4284 -2.58552 -0.0704536
Spine1  17.4972 -8.86645 23.0849
HEad  -19.063 3.02752 20.6429
LeftShoulder1  7.77768 -13.7749 -38.8659
LeftArm  13.5312 3.57575 -35.5129
LeftForeArm  135.554 -78.6084 -123.612
LeftHand  -0.41312 -3.82533 5.4708
RightShoulder  4.4355 7.03142 36.1789
RightArm  -21.157 -8.5822 19.7746
RightForeArm  21.4001 10.0025 7.16
RightHand  -0.413575 9.13561 -3.68929
LeftUpLeg  10.1542 -20.8712 17.3519
LeftLeg  39.2062 -1.58156 -1.00612
LeftFoot  -6.13014 -0.241705 6.11653
LeftToes  1.24767e-006 1.47042e-008 1.32732e-009
